<svg width="1024" height="1024" viewBox="0 0 1024 1024" fill="none" xmlns="http://www.w3.org/2000/svg">
  <rect width="1024" height="1024" rx="180" fill="#FFFFFF"/>
  <defs>
    <linearGradient id="fg" x1="0" y1="0" x2="720" y2="720" gradientUnits="userSpaceOnUse">
      <stop offset="0%" stop-color="#00E5FF"/>
      <stop offset="50%" stop-color="#0096FF"/>
      <stop offset="100%" stop-color="#00C8FF"/>
    </linearGradient>
    <linearGradient id="fg2" x1="0" y1="0" x2="720" y2="720" gradientUnits="userSpaceOnUse">
      <stop offset="0%" stop-color="#00C8FF" stop-opacity="0.6"/>
      <stop offset="100%" stop-color="#0060CC" stop-opacity="0.3"/>
    </linearGradient>
  </defs>
  <g transform="translate(262,262) scale(7.2)">
    <path d="M36 4 L62 19 L62 49 L36 64 L10 49 L10 19 Z" stroke="url(#fg2)" stroke-width="1.5" fill="none" opacity="0.9"/>
    <line x1="36" y1="8" x2="36" y2="64" stroke="url(#fg)" stroke-width="2.6" stroke-linecap="round"/>
    <line x1="8" y1="36" x2="64" y2="36" stroke="url(#fg)" stroke-width="2.6" stroke-linecap="round"/>
    <line x1="15" y1="15" x2="57" y2="57" stroke="url(#fg)" stroke-width="2" stroke-linecap="round" opacity="0.9"/>
    <line x1="57" y1="15" x2="15" y2="57" stroke="url(#fg)" stroke-width="2" stroke-linecap="round" opacity="0.9"/>
    <line x1="36" y1="8"  x2="30" y2="14" stroke="url(#fg)" stroke-width="1.8" stroke-linecap="round"/>
    <line x1="36" y1="8"  x2="42" y2="14" stroke="url(#fg)" stroke-width="1.8" stroke-linecap="round"/>
    <line x1="36" y1="64" x2="30" y2="58" stroke="url(#fg)" stroke-width="1.8" stroke-linecap="round"/>
    <line x1="36" y1="64" x2="42" y2="58" stroke="url(#fg)" stroke-width="1.8" stroke-linecap="round"/>
    <line x1="8"  y1="36" x2="14" y2="30" stroke="url(#fg)" stroke-width="1.8" stroke-linecap="round"/>
    <line x1="8"  y1="36" x2="14" y2="42" stroke="url(#fg)" stroke-width="1.8" stroke-linecap="round"/>
    <line x1="64" y1="36" x2="58" y2="30" stroke="url(#fg)" stroke-width="1.8" stroke-linecap="round"/>
    <line x1="64" y1="36" x2="58" y2="42" stroke="url(#fg)" stroke-width="1.8" stroke-linecap="round"/>
    <circle cx="36" cy="22" r="3" fill="url(#fg)"/>
    <circle cx="36" cy="50" r="3" fill="url(#fg)"/>
    <circle cx="22" cy="36" r="3" fill="url(#fg)"/>
    <circle cx="50" cy="36" r="3" fill="url(#fg)"/>
    <circle cx="24" cy="24" r="2" fill="url(#fg)" opacity="0.7"/>
    <circle cx="48" cy="24" r="2" fill="url(#fg)" opacity="0.7"/>
    <circle cx="24" cy="48" r="2" fill="url(#fg)" opacity="0.7"/>
    <circle cx="48" cy="48" r="2" fill="url(#fg)" opacity="0.7"/>
    <circle cx="36" cy="36" r="6.5" fill="url(#fg)" opacity="0.95"/>
    <circle cx="36" cy="36" r="3.5" fill="#FFFFFF"/>
    <circle cx="36" cy="36" r="1.8" fill="url(#fg)"/>
  </g>
</svg>
