<svg width="100" height="100" viewBox="0 0 100 100" fill="none" xmlns="http://www.w3.org/2000/svg">
  <rect width="100" height="100" rx="20" fill="#0D1B2E"/>
  <defs>
    <linearGradient id="gi" x1="0" y1="0" x2="72" y2="72" gradientUnits="userSpaceOnUse">
      <stop offset="0%" stop-color="#00E5FF"/>
      <stop offset="50%" stop-color="#0096FF"/>
      <stop offset="100%" stop-color="#00C8FF"/>
    </linearGradient>
    <linearGradient id="gi2" x1="0" y1="0" x2="72" y2="72" gradientUnits="userSpaceOnUse">
      <stop offset="0%" stop-color="#00C8FF" stop-opacity="0.5"/>
      <stop offset="100%" stop-color="#0060CC" stop-opacity="0.2"/>
    </linearGradient>
  </defs>
  <g transform="translate(14,14)">
    <path d="M36 4 L62 19 L62 49 L36 64 L10 49 L10 19 Z" stroke="url(#gi2)" stroke-width="1.2" fill="none" opacity="0.8"/>
    <line x1="36" y1="8" x2="36" y2="64" stroke="url(#gi)" stroke-width="2.4" stroke-linecap="round"/>
    <line x1="8" y1="36" x2="64" y2="36" stroke="url(#gi)" stroke-width="2.4" stroke-linecap="round"/>
    <line x1="15" y1="15" x2="57" y2="57" stroke="url(#gi)" stroke-width="1.8" stroke-linecap="round" opacity="0.8"/>
    <line x1="57" y1="15" x2="15" y2="57" stroke="url(#gi)" stroke-width="1.8" stroke-linecap="round" opacity="0.8"/>
    <line x1="36" y1="8"  x2="30" y2="14" stroke="url(#gi)" stroke-width="1.6" stroke-linecap="round"/>
    <line x1="36" y1="8"  x2="42" y2="14" stroke="url(#gi)" stroke-width="1.6" stroke-linecap="round"/>
    <line x1="36" y1="64" x2="30" y2="58" stroke="url(#gi)" stroke-width="1.6" stroke-linecap="round"/>
    <line x1="36" y1="64" x2="42" y2="58" stroke="url(#gi)" stroke-width="1.6" stroke-linecap="round"/>
    <line x1="8"  y1="36" x2="14" y2="30" stroke="url(#gi)" stroke-width="1.6" stroke-linecap="round"/>
    <line x1="8"  y1="36" x2="14" y2="42" stroke="url(#gi)" stroke-width="1.6" stroke-linecap="round"/>
    <line x1="64" y1="36" x2="58" y2="30" stroke="url(#gi)" stroke-width="1.6" stroke-linecap="round"/>
    <line x1="64" y1="36" x2="58" y2="42" stroke="url(#gi)" stroke-width="1.6" stroke-linecap="round"/>
    <circle cx="36" cy="22" r="3" fill="url(#gi)"/>
    <circle cx="36" cy="50" r="3" fill="url(#gi)"/>
    <circle cx="22" cy="36" r="3" fill="url(#gi)"/>
    <circle cx="50" cy="36" r="3" fill="url(#gi)"/>
    <circle cx="24" cy="24" r="2" fill="url(#gi)" opacity="0.6"/>
    <circle cx="48" cy="24" r="2" fill="url(#gi)" opacity="0.6"/>
    <circle cx="24" cy="48" r="2" fill="url(#gi)" opacity="0.6"/>
    <circle cx="48" cy="48" r="2" fill="url(#gi)" opacity="0.6"/>
    <circle cx="36" cy="36" r="6.5" fill="url(#gi)" opacity="0.95"/>
    <circle cx="36" cy="36" r="3.5" fill="#0a1520"/>
    <circle cx="36" cy="36" r="1.8" fill="url(#gi)"/>
  </g>
</svg>
